<svg xmlns="http://www.w3.org/2000/svg" xmlns:xlink="http://www.w3.org/1999/xlink" width="100" height="100" viewBox="0 0 100 100">
  <defs>
    <rect id="rect-2" width="100" height="100" x="0" y="0"/>
    <mask id="mask-3" maskContentUnits="userSpaceOnUse" maskUnits="userSpaceOnUse">
      <rect width="100" height="100" x="0" y="0" fill="black"/>
      <use fill="white" xlink:href="#rect-2"/>
    </mask>
  </defs>
  <g>
    <path fill="rgb(75,192,118)" fill-rule="evenodd" d="M5 0h90c2.75957512 0 5 2.24042488 5 5v90c0 2.75957512-2.24042488 5-5 5H5c-2.75957512 0-5-2.24042488-5-5V5c0-2.75957512 2.24042488-5 5-5z"/>
    <g>
      <use fill="none" xlink:href="#rect-2"/>
      <g mask="url(#mask-3)">
        <path fill="rgb(255,255,255)" fill-rule="evenodd" d="M77.5 28.29999924l-18-9c-.82761383-.36794854-1.77238464-.36794854-2.59999847 0l-16.6000023 8.39999962L23.5 19.29999924c-.97692871-.52315712-2.1588192-.48503113-3.10000038.10000038-.87450981.5284977-1.406353 1.47821808-1.39999962 2.5v45.0000019c-.00292015 1.09996796.61673546 2.10691071 1.60000038 2.59999848l17.9999981 9c.85594177.39827728 1.8440628.39827728 2.70000076 0L58 70.19999695 74.59999847 78.5c.41664124.2692871.90398407.40852356 1.40000153.40000153.57187653.00063324 1.1302414-.17385102 1.59999847-.5.87451172-.52850342 1.40635682-1.47821808 1.40000153-2.5V30.89999962c.0460205-1.08410072-.53845215-2.09719086-1.5-2.60000038zm-4.69999695 29.5c.03243256.62755203-.24751282 1.23054886-.74781036 1.610775-.50029755.38023376-1.15623474.4885025-1.75218964.2892227-2.5491867-.9762802-2.5978775-3.68820571-2.6510849-6.65190505C67.60401917 50.54754639 67.5559082 47.86776352 66 45.90000153c-1.36978912-1.72328186-2.91529465-1.90411759-4.55025482-2.09541703C59.38459015 43.56294632 57.17671967 43.3046112 55 39.90000153 51.40000153 34 56.30000305 29.79999923 60.80000305 27.5c.54133606-.2396183 1.15866089-.2396183 1.69999695 0l9.30000305 4.70000076c.64031983.369133 1.02487183 1.06131363 1 1.79999924v23.79999924zM45.40000153 68.5c.61618423.51119995 1.46943664.62755585 2.19999694.30000305l1.40000153-.5c.50385284-.27044678.86784363-.74363708 1-1.30000305.69999695-2.5 1.5-6.20000076 3.19999695-8 1.20939636-1.18495941 1.89092254-2.80684662 1.89092254-4.5s-.68152618-3.31504059-1.89092254-4.5c-2-2-3-3-9-1-4.6723137 1.5574379-5.70620346.08285904-6.87942124-1.59043121-.33338165-.47547913-.67801284-.96700669-1.12057495-1.40956879-2-2-5 0-6-2-1.0000019-2 2-4 5-3 1.04075623.34692001 1.82876969 1.00675201 2.50182724 1.57032776C38.9688759 43.63127518 39.82852936 44.35109329 41.20000076 42 43.09999847 38.79999924 44 36.59999847 39.5 34l-.40000153-.20000076c-.04008483-.08879853-.11119842-.15991593-.19999694-.20000077l-10.80000115-5.29999923c-.58463478-.27145005-1.267025-.22797966-1.81248855.11546135-.54546547.3434391-.87960625.94000816-.88751221 1.58453941v18.29999924c-.03260803.5576973.18187523 1.1014862.58641624 1.486763.40454102.3852768.95813752.57299423 1.51358414.513237 4.90000153-.5 10.59999847.70000076 10.59999847 5.60000229 0 6 5 5 5 8 .11314011 1.78125.94288254 3.44073486 2.30000306 4.59999847z"/>
      </g>
    </g>
  </g>
</svg>
